<svg viewBox="0 0 54 53" fill="none" xmlns="http://www.w3.org/2000/svg">
<path d="M50.1896 33.1286C50.1896 33.1286 46.91 25.6174 44.2594 21.2124C44.4676 18.8801 44.6124 14.0316 42.5909 11.9995C41.8517 11.2543 40.8757 10.9405 39.7593 11.0899C37.8977 11.3418 36.5234 12.0659 35.6847 13.2471C35.1431 14.0014 34.9274 14.8055 34.8474 15.4768C32.5227 14.9578 30.6807 14.8055 30.6807 14.8055C30.6807 14.8055 30.554 9.64012 29.8631 9.32633C29.4995 9.1619 26.8369 11.6797 24.5152 14.2277L24.5197 14.2171C24.5197 14.2171 24.5137 14.2277 24.5137 14.2292C23.865 14.9443 23.2419 15.6548 22.7064 16.3171C22.0502 16.9069 21.2069 17.5782 20.0573 18.3039C12.5808 25.6642 11.3348 35.3568 10.4432 37.858C9.55161 40.3607 4.33496 43.4805 4.33496 43.4805L9.61648 43.5212C9.61648 43.5212 14.3308 33.9508 15.3989 29.3949C16.2165 31.6261 10.5684 43.4805 10.5684 43.4805C10.5684 43.4805 13.6383 43.574 13.9521 43.4805C14.2659 43.3854 18.0072 30.4328 17.9227 26.592C18.9817 30.119 15.7458 43.5227 15.7458 43.5227C15.7458 43.5227 20.5235 43.5227 21.3713 43.5227C18.4794 41.2599 19.8099 37.2938 19.4961 30.6938C19.288 26.334 20.8071 22.0421 21.8631 19.6209C23.5633 19.8652 26.9757 19.1924 26.9757 19.1924C26.9757 19.1924 26.7645 20.9786 27.0541 23.2852C26.3647 23.2444 25.0281 23.2972 23.8227 24.1556C22.6476 25.0019 21.9189 26.3732 21.667 28.2318C21.5161 29.3436 21.8299 30.3242 22.5767 31.0634C24.0309 32.5101 26.9244 32.8511 29.3094 32.8511C30.9115 32.8511 32.2858 32.6957 32.8365 32.6308C37.863 35.6208 45.8117 38.0964 45.8117 38.0964L50.1896 33.1286ZM23.6417 29.9938C23.2284 29.5835 23.076 29.0841 23.1665 28.4324C23.3596 27.0099 23.874 25.9825 24.6932 25.3896C25.8307 24.5675 27.2321 24.8134 27.2442 24.8164L27.2759 24.6444C27.7345 26.8756 28.712 29.3421 30.7471 31.1343C30.8059 31.1841 30.8738 31.2293 30.9327 31.2836C28.4737 31.4254 24.9662 31.3123 23.6417 29.9938ZM41.8713 18.3008C40.3311 17.1573 38.2598 16.3774 36.3198 15.8419C36.356 15.3471 36.4918 14.7014 36.9096 14.1221C37.504 13.2954 38.5283 12.7749 39.9615 12.5818C40.6147 12.4928 41.111 12.6452 41.5183 13.0585C42.6467 14.1915 42.8911 16.928 42.8504 19.2377C42.5291 18.8786 42.2062 18.5498 41.8713 18.3008Z" fill="#ff7010"/>
</svg>
