<svg version="1.1"  xmlns="http://www.w3.org/2000/svg" xmlns:xlink="http://www.w3.org/1999/xlink" x="0px" y="0px" viewBox="0 0 53 54" style="enable-background:new 0 0 53 54;" xml:space="preserve">
<style type="text/css">
	.st0{clip-path:url(#SVGID_2_);}
	.st1{fill:#ff7010;}
</style>
<g>
	<defs>
		<path id="SVGID_1_" d="M20.3,0.8h12.4c11,0,20,9,20,20v12.4c0,11-9,20-20,20H20.3c-11,0-20-9-20-20V20.8C0.3,9.7,9.2,0.8,20.3,0.8
			z"/>
	</defs>
	<clipPath id="SVGID_2_">
		<use xlink:href="#SVGID_1_"  style="overflow:visible;"/>
	</clipPath>
	<g class="st0">
		<path class="st1" d="M44.3,11.7c-0.8,1.3-1.8,3.2-1.8,4.6c-1.4-0.8-0.2-3.5,0.8-5.2c0,0-0.1,0-0.1-0.1c-1-0.5-1.9-0.9-2.8-1.1
			c-0.4,1.5-0.8,3.7-0.4,5.1c-1.7-0.4-1.2-3.4-0.7-5.3c-1.2-0.2-2.4,0-3.5,0.4c0.3,1.6,0.9,3.7,1.8,4.7c-1.6,0.3-2.5-2.4-2.9-4.3
			c-0.8,0.4-1.5,1-2.3,1.7c0.7,1.4,1.7,3.2,2.9,4c-1.4,0.7-2.8-1.4-3.7-3.1c-1.3,1.3-2.6,3-4,5.1c-0.4-0.1-1-0.1-1.5,0
			c-0.5,0-1.1,0-1.5,0c-1.4-2.1-2.7-3.8-4-5.1c-0.9,1.7-2.3,3.8-3.7,3.1c1.2-0.7,2.2-2.5,2.9-4c-0.8-0.7-1.5-1.3-2.3-1.7
			c-0.4,1.9-1.3,4.6-2.9,4.3c1-1,1.5-3.2,1.8-4.7c-1.1-0.4-2.3-0.6-3.5-0.4c0.5,1.9,1,4.9-0.7,5.3c0.5-1.3,0-3.6-0.4-5.1
			c-0.9,0.2-1.8,0.6-2.8,1.1c0,0-0.1,0-0.1,0.1c1,1.7,2.2,4.3,0.8,5.2c0-1.4-0.9-3.2-1.8-4.6c-5.4,3.6-6.4,12.1-3.5,16
			c0.9,1.2,4.3,5,7.7,2.1c3.4-2.9,0.2-6.6-1.2-7c-0.6,1.7,1.1,3.4-0.5,3.2c-4-0.6-4.1-4.6,0.5-8c4.2-2.9,7.5,3.2,7.5,3.2
			s-5.1-3.1-7-2.1c-1.9,1,0.1,1.5,0.9,2.8c0.7,1.3,4.4,2.9,4,4.1c-0.6,5.5,3.6,9,4.3,10.5c0.6,1.5,1.1,8.2,5.1,8.3h0
			c0,0,0.4,0,0.6,0h0c4-0.1,4.5-6.8,5.1-8.3c0.6-1.5,4.9-5.1,4.3-10.5c-0.4-1.2,3.2-2.8,4-4.1c0.7-1.3,2.7-1.8,0.9-2.8
			c-1.9-1-7,2.1-7,2.1s3.4-6.1,7.5-3.2c4.6,3.4,4.6,7.4,0.5,8c-1.7,0.2,0.1-1.5-0.5-3.2c-1.5,0.3-4.6,4.1-1.2,7
			c3.4,2.9,6.8-0.9,7.7-2.1C50.7,23.8,49.7,15.3,44.3,11.7z M17,24.1c-0.6-0.1-3.4-2.1-3.8-2.7c-0.4-0.6-0.9-1.3-0.9-1.5
			c0.3-0.8,5.6,1.3,5.6,2.5C17.9,23.1,17.8,24.3,17,24.1z M20.1,34.2c-0.5,0.2-2-2.4-2.4-3.4c-0.4-1,0.4-2.1,1.1-2.1
			C19.3,29,21.2,33.7,20.1,34.2z M25.4,43.9c-0.6,0.1-1.8-0.7-1.8-1.2c0-0.5,0.9-0.4,1.1-0.3C25,42.5,26,43.8,25.4,43.9z M27.1,43.9
			c-0.6-0.1,0.4-1.4,0.6-1.5c0.2-0.1,1.1-0.2,1.1,0.3C28.8,43.2,27.7,44.1,27.1,43.9z M40.1,19.9c0,0.1-0.5,0.8-0.9,1.5
			c-0.4,0.6-3.2,2.6-3.8,2.7c-0.8,0.2-1-1-1-1.8C34.5,21.2,39.9,19.1,40.1,19.9z M34.7,30.8c-0.4,1-2,3.7-2.4,3.4
			c-1-0.5,0.9-5.2,1.3-5.5C34.4,28.7,35.1,29.8,34.7,30.8z"/>
	</g>
</g>
</svg>
