<svg viewBox="0 0 54 53" fill="none" xmlns="http://www.w3.org/2000/svg">
<path d="M36.085 25.1109C36.2753 22.5177 28.939 20.1148 28.939 20.1148C28.939 20.1148 28.7862 18.1125 29.8243 17.3952C29.1282 16.1305 27.8635 20.6834 27.8635 20.6834C27.8635 20.6834 27.1674 19.7344 26.1556 20.6834C25.7762 20.6834 25.6497 17.0158 24.638 17.0785C25.0811 18.5961 24.8909 20.7461 24.8909 20.7461C24.8909 20.7461 19.3262 22.454 18.4409 24.5403C17.5556 26.6265 20.2115 34.405 26.9144 34.7216C33.6174 35.0393 35.8958 27.704 36.085 25.1109Z" fill="#ff7010"/>
<path d="M34.9687 22.0382C35.4452 22.2284 36.2122 23.4355 36.5592 23.4355C36.9062 23.4355 41.3024 19.9894 41.618 19.0404C41.9337 18.0913 41.62 17.8859 41.2093 17.1909C40.1338 17.8232 34.4942 21.848 34.9687 22.0382Z" fill="#ff7010"/>
<path d="M36.0888 15.4041C36.9073 16.0364 38.7093 18.2815 38.7093 18.2815H38.8358C39.5116 17.8889 40.6691 16.8903 41.175 16.9217C41.6809 16.9531 36.3994 7.75208 30.6779 8.95406C35.2936 10.6619 35.7671 13.0325 34.472 13.7913C33.176 14.5501 30.8044 12.9687 29.6034 11.3884C29.1613 15.3089 35.2713 14.7717 36.0888 15.4041Z" fill="#ff7010"/>
<path d="M39.8434 28.2271C39.1058 28.5873 38.4026 28.8767 37.8573 28.992C37.3039 29.1074 36.9902 29.0295 36.7646 28.9333C36.6483 28.8787 36.6179 28.8656 36.4955 28.7937C36.4004 28.7421 36.3508 28.7158 36.3508 28.7158L35.4888 30.5471C35.4888 30.5471 35.5424 30.5683 35.6385 30.6068C35.7033 30.6321 35.9623 30.7333 36.2233 30.795C36.4884 30.8597 36.8304 30.8982 37.2057 30.88C37.5791 30.8547 37.9706 30.7596 38.348 30.623C39.0947 30.3407 39.8039 29.9036 40.5233 29.418C40.8845 29.1751 41.2467 28.9161 41.6079 28.6511C42.0167 28.3485 42.3192 28.1138 42.6966 27.7476C43.0547 27.4096 43.3603 27.0656 43.6456 26.7044C43.94 26.3503 44.197 25.983 44.4338 25.6239C44.9123 24.9025 45.2978 24.2013 45.5973 23.5902C46.2003 22.365 46.4887 21.507 46.4887 21.507C46.4887 21.507 46.084 22.3184 45.3292 23.4334C44.9498 23.9878 44.4833 24.6172 43.934 25.2394C43.6598 25.55 43.3664 25.8626 43.0507 26.152C42.7421 26.4464 42.3981 26.7348 42.0662 26.9715C41.7637 27.2032 41.3155 27.4683 40.9776 27.6443C40.5982 27.8497 40.2147 28.0491 39.8434 28.2271Z" fill="#ff7010"/>
<path d="M45.4377 29.681C45.2738 29.845 45.033 29.9654 44.7872 30.1171C44.5555 30.277 44.252 30.3792 43.9596 30.5178C43.6611 30.6523 43.3211 30.7464 42.9873 30.8668C42.2952 31.0631 41.5526 31.2371 40.7958 31.3515C39.2862 31.5902 37.7463 31.6621 36.6435 31.6085C36.3733 31.5842 36.1164 31.573 35.913 31.5427C35.741 31.5113 35.4597 31.4739 35.5194 31.4658C35.5144 31.4658 35.5083 31.4739 35.5002 31.487C35.4961 31.5073 35.4081 31.4375 35.3818 31.4243C35.3049 31.3768 35.2634 31.3535 35.2634 31.3535L34.2456 33.1028C34.2456 33.1028 34.2911 33.1231 34.3761 33.1565C34.4348 33.1777 34.4399 33.1878 34.5663 33.2253C34.6888 33.2627 34.8334 33.3001 34.9973 33.3315C35.3929 33.4094 35.5265 33.3659 35.829 33.377C36.1022 33.375 36.3804 33.3396 36.6981 33.3143C37.9335 33.1726 39.5058 32.8367 41.0315 32.3329C41.7944 32.089 42.539 31.7794 43.2169 31.4607C43.5488 31.2756 43.8766 31.1269 44.167 30.9356C44.4523 30.7394 44.7376 30.5856 44.9632 30.3761C45.1929 30.1788 45.4114 30.018 45.5622 29.8146C45.7099 29.6214 45.8779 29.4888 45.9457 29.3188C46.1055 29.0143 46.1966 28.8403 46.1966 28.8403C46.1966 28.8403 46.0802 28.9941 45.8748 29.2672C45.7979 29.417 45.6057 29.5242 45.4377 29.681Z" fill="#ff7010"/>
<path d="M37.9817 39.5114C37.8714 39.1967 37.7915 38.8477 37.6275 38.532C37.4869 38.2052 37.321 37.8824 37.1318 37.5789C36.3983 36.3294 35.3926 35.2984 34.6853 34.5477C34.5133 34.3625 34.3555 34.1976 34.2149 34.0509C34.0884 33.9113 33.9518 33.7615 33.9518 33.7413C33.9356 33.72 33.9225 33.7039 33.9043 33.6897C33.879 33.6381 33.8527 33.5956 33.8375 33.5632C33.798 33.4924 33.7758 33.455 33.7758 33.455L32.0669 34.5375C32.0669 34.5375 32.0922 34.5689 32.1458 34.6327C32.1691 34.664 32.2035 34.7035 32.2429 34.749C32.3057 34.8148 32.3856 34.8967 32.4706 34.9827C32.6699 35.1851 32.8085 35.2721 32.9886 35.4137C33.1626 35.5402 33.3539 35.6818 33.5653 35.8346C34.3859 36.4306 35.4644 37.1934 36.3123 38.1718C36.5359 38.4096 36.7311 38.6655 36.9072 38.9306C37.1085 39.1836 37.2249 39.4679 37.3837 39.733C37.5061 40.0071 37.6114 40.2844 37.6994 40.5525C37.7571 40.8267 37.8259 41.0847 37.8592 41.3326C37.8734 41.5835 37.8825 41.8131 37.8947 42.0155C37.9007 42.2199 37.8572 42.3959 37.8471 42.5436C37.8117 42.8401 37.7894 43.0101 37.7894 43.0101C37.7894 43.0101 37.8431 42.8461 37.9321 42.5618C37.9695 42.4141 38.0444 42.2441 38.0798 42.0347C38.1061 41.8233 38.1405 41.5875 38.1759 41.3265C38.1901 41.0614 38.1648 40.7771 38.1587 40.4665C38.1183 40.1619 38.0626 39.8382 37.9817 39.5114Z" fill="#ff7010"/>
<path d="M31.6601 36.2373C31.6085 36.0329 31.5609 35.8437 31.5195 35.6758C31.5033 35.6009 31.4921 35.5281 31.478 35.4643C31.4598 35.3915 31.4527 35.3338 31.4618 35.3459C31.4679 35.3419 31.4517 35.3358 31.4618 35.2346C31.4638 35.1699 31.4658 35.1304 31.4658 35.1304L29.4443 35.1962C29.4443 35.1962 29.4524 35.2316 29.4646 35.3004C29.4686 35.3338 29.5 35.522 29.5698 35.7608C29.6072 35.8933 29.6426 35.9682 29.676 36.039C29.7094 36.1169 29.7489 36.2019 29.7883 36.2909C29.8693 36.4528 29.9603 36.6349 30.0595 36.8342C30.4531 37.6052 30.9529 38.5947 31.3009 39.652C31.483 40.1781 31.6095 40.7174 31.6985 41.2324C31.7754 41.7514 31.8017 42.2401 31.7916 42.665C31.7663 43.0859 31.734 43.4451 31.6733 43.69C31.6237 43.9368 31.5964 44.0805 31.5964 44.0805C31.5964 44.0805 31.6561 43.9469 31.7562 43.7163C31.8705 43.4846 31.9839 43.1426 32.1083 42.7156C32.2135 42.2836 32.2995 41.7696 32.34 41.2101C32.3653 40.6506 32.3613 40.0476 32.2945 39.4497C32.1761 38.2507 31.8756 37.075 31.6601 36.2373Z" fill="#ff7010"/>
<path d="M17.5353 23.4345C17.8833 23.4345 18.6523 22.2274 19.1258 22.0372C19.5993 21.847 13.9607 17.8232 12.8862 17.1909C12.4744 17.8859 12.1598 18.0913 12.4765 19.0404C12.7921 19.9894 17.1882 23.4345 17.5353 23.4345Z" fill="#ff7010"/>
<path d="M15.2586 18.2815H15.385C15.385 18.2815 17.187 16.0364 18.0055 15.4041C18.824 14.7717 24.9341 15.3089 24.4909 11.3884C23.2889 12.9697 20.9184 14.5501 19.6213 13.7913C18.3252 13.0325 18.7997 10.6609 23.4154 8.95406C17.6939 7.75208 12.4135 16.9531 12.9194 16.9217C13.4253 16.8903 14.5847 17.8889 15.2586 18.2815Z" fill="#ff7010"/>
<path d="M9.65248 25.6229C9.89126 25.9821 10.1482 26.3504 10.4406 26.7035C10.726 27.0647 11.0335 27.4066 11.3917 27.7476C11.7691 28.1098 12.0696 28.3486 12.4783 28.6491C12.8416 28.9152 13.2017 29.1742 13.5629 29.417C14.2843 29.9017 14.9936 30.3398 15.7413 30.621C16.1187 30.7586 16.5072 30.8527 16.8815 30.878C17.2569 30.8972 17.6019 30.8588 17.8629 30.795C18.126 30.7323 18.385 30.6342 18.4498 30.6058C18.5489 30.5674 18.5985 30.5462 18.5985 30.5462L17.7365 28.7159C17.7365 28.7159 17.6869 28.7412 17.5928 28.7928C17.4704 28.8616 17.4421 28.8778 17.3257 28.9314C17.0981 29.0285 16.7844 29.1074 16.231 28.9911C15.6856 28.8757 14.9845 28.5894 14.2449 28.2262C13.8786 28.0481 13.4952 27.8498 13.1056 27.6444C12.7697 27.4684 12.3195 27.2013 12.019 26.9716C11.6851 26.7359 11.3411 26.4465 11.0345 26.1521C10.7169 25.8627 10.4245 25.5491 10.1513 25.2395C9.60189 24.6172 9.13344 23.9879 8.75403 23.4335C8.00432 22.3175 7.59961 21.506 7.59961 21.506C7.59961 21.506 7.88594 22.364 8.48895 23.5893C8.79147 24.1994 9.17695 24.9015 9.65248 25.6229Z" fill="#ff7010"/>
<path d="M18.2643 33.375C18.5648 33.3638 18.7024 33.4074 19.0939 33.3294C19.2578 33.2981 19.4025 33.2606 19.5249 33.2232C19.6514 33.1858 19.6575 33.1726 19.7151 33.1544C19.8022 33.121 19.8477 33.1008 19.8477 33.1008L18.8299 31.3504C18.8299 31.3504 18.7884 31.3737 18.7095 31.4213C18.6821 31.4344 18.5971 31.5002 18.5911 31.484C18.583 31.4708 18.5789 31.4627 18.5729 31.4627C18.6356 31.4708 18.3523 31.5083 18.1803 31.5396C17.9769 31.57 17.7199 31.5811 17.4508 31.6054C16.344 31.659 14.8091 31.5872 13.2985 31.3484C12.5397 31.2341 11.7981 31.0601 11.105 30.8638C10.7722 30.7434 10.4312 30.6493 10.1348 30.5147C9.84033 30.3741 9.53781 30.2749 9.30409 30.1141C9.06329 29.9653 8.81946 29.8419 8.65454 29.678C8.48861 29.5212 8.29638 29.4129 8.21139 29.2682C8.00802 28.994 7.88965 28.8392 7.88965 28.8392C7.88965 28.8392 7.98273 29.0133 8.14259 29.3198C8.20734 29.4878 8.37732 29.6213 8.52605 29.8156C8.67377 30.0149 8.89534 30.1758 9.12501 30.3761C9.34962 30.5866 9.63595 30.7363 9.91925 30.9356C10.2096 31.1258 10.5374 31.2756 10.8693 31.4617C11.5492 31.7794 12.2918 32.088 13.0547 32.3329C14.5804 32.8367 16.1537 33.1726 17.3901 33.3153C17.7108 33.3375 17.9911 33.373 18.2643 33.375Z" fill="#ff7010"/>
<path d="M21.9484 34.6306C22 34.5679 22.0263 34.5355 22.0263 34.5355L20.3164 33.4529C20.3164 33.4529 20.2951 33.4903 20.2587 33.5602C20.2375 33.5935 20.2142 33.636 20.1879 33.6866C20.1707 33.7018 20.1565 33.716 20.1403 33.7392C20.1424 33.7595 20.0058 33.9092 19.8813 34.0488C19.7397 34.1966 19.5818 34.3645 19.4098 34.5456C18.7036 35.2963 17.6959 36.3273 16.9614 37.5769C16.7712 37.8834 16.6052 38.2031 16.4666 38.5299C16.3047 38.8456 16.2258 39.1947 16.1115 39.5093C16.0326 39.8361 15.9769 40.1619 15.9334 40.4604C15.9274 40.769 15.9061 41.0553 15.9172 41.3194C15.9516 41.5804 15.983 41.8172 16.0144 42.0286C16.0457 42.237 16.1216 42.4101 16.1611 42.5558C16.2501 42.8421 16.3027 43.004 16.3027 43.004C16.3027 43.004 16.2815 42.833 16.2461 42.5365C16.2359 42.3888 16.1924 42.2138 16.2005 42.0094C16.2117 41.807 16.2218 41.5764 16.2339 41.3275C16.2673 41.0806 16.3402 40.8196 16.3938 40.5474C16.4869 40.2803 16.589 40.0041 16.7105 39.7289C16.8683 39.4638 16.9846 39.1775 17.188 38.9245C17.362 38.6584 17.5593 38.4045 17.7809 38.1677C18.6288 37.1894 19.7093 36.4265 20.5278 35.8295C20.7393 35.6778 20.9346 35.5351 21.1066 35.4087C21.2867 35.267 21.4222 35.18 21.6246 34.9776C21.7096 34.8886 21.7845 34.8097 21.8522 34.7429C21.8907 34.7035 21.9221 34.664 21.9484 34.6306Z" fill="#ff7010"/>
<path d="M22.6315 35.2346C22.6416 35.3399 22.6234 35.3419 22.6315 35.3459C22.6416 35.3338 22.6335 35.3915 22.6163 35.4643C22.6021 35.5281 22.59 35.6009 22.5728 35.6758C22.5313 35.8437 22.4858 36.0329 22.4342 36.2373C22.2167 37.075 21.9162 38.2487 21.7998 39.4476C21.7361 40.0456 21.729 40.6496 21.7563 41.2071C21.7958 41.7706 21.8848 42.2816 21.989 42.7126C22.1104 43.1416 22.2207 43.4856 22.3391 43.7142C22.4403 43.9459 22.4969 44.0785 22.4969 44.0785C22.4969 44.0785 22.4696 43.9358 22.422 43.6869C22.3583 43.4461 22.329 43.0839 22.3016 42.664C22.2936 42.2381 22.3199 41.7484 22.3947 41.2314C22.4858 40.7144 22.6102 40.1751 22.7934 39.651C23.1394 38.5927 23.6392 37.6042 24.0348 36.8332C24.1339 36.6339 24.225 36.4518 24.307 36.2899C24.3454 36.2009 24.3828 36.1159 24.4183 36.038C24.4496 35.9682 24.485 35.8903 24.5235 35.7587C24.5933 35.521 24.6267 35.3338 24.6307 35.3004C24.6439 35.2336 24.6499 35.1952 24.6499 35.1952L22.6284 35.1304C22.6284 35.1314 22.6284 35.1679 22.6315 35.2346Z" fill="#ff7010"/>
</svg>
