<svg viewBox="0 0 53 53" fill="none" xmlns="http://www.w3.org/2000/svg">
<path d="M30.6559 42.4991C31.9436 42.4966 32.3911 44.3002 31.8342 44.3002C31.2799 44.3002 29.3743 44.3052 29.0511 44.3052C28.7279 44.3052 28.7777 43.6377 28.8299 43.0087C28.8821 42.3823 27.915 36.243 27.7161 35.6351C27.5197 35.0285 26.396 35.6662 21.6825 35.701C16.9664 35.7296 15.9496 34.3871 15.9198 35.3903C15.8887 36.3946 15.3356 37.6215 15.5705 38.2915C15.8042 38.959 16.2094 42.0442 16.5587 42.5911C17.4823 42.4941 18.0814 44.171 17.4835 44.171C16.8844 44.171 15.4027 44.1971 15.1044 44.1971C14.8048 44.1971 14.954 43.4227 14.9776 42.9802C15.0037 42.5389 14.0864 40.0963 13.6302 39.4239C13.1765 38.7539 13.0323 35.2871 13.0323 35.2871C13.0323 35.2871 10.0701 38.3387 9.9881 38.8247C9.90731 39.3108 9.97692 42.8633 9.97692 43.2387C10.949 43.3381 11.3828 44.6906 10.9092 44.6906C10.4356 44.6906 8.81096 44.7291 8.44924 44.7291C8.08379 44.7291 8.21555 43.3667 8.31499 43.0982C8.41195 42.826 7.79541 39.8888 7.79541 38.6644C7.79541 37.4375 10.0801 34.0055 10.0801 33.0347C10.0801 32.0652 9.30196 30.0912 9.42004 28.0626C9.59904 25.0272 11.4685 23.4871 14.4406 23.4622C20.0193 23.4125 19.8179 25.6039 25.25 24.7574C31.7261 23.7481 36.2072 22.6145 35.1482 19.6175C35.1482 19.6175 34.5739 18.4304 34.7081 17.8077C34.8424 17.1862 35.1482 16.8642 35.1482 16.8642C35.1482 16.8642 27.1493 10.6454 22.0417 9.48938C22.6632 7.89085 30.1723 11.2222 30.1723 11.2222C30.1723 11.2222 28.4855 8.77837 23.199 7.22335C28.841 5.31282 36.4832 16.2875 36.4832 16.2875C36.4832 16.2875 41.0786 17.9805 44.4149 24.2901C44.5926 26.0241 43.6852 26.3995 42.784 26.1645C41.8841 25.9296 41.1793 25.1552 40.0792 25.364C39.1035 25.5468 35.1196 30.7625 35.1805 31.7047C35.2426 32.6444 36.3626 36.8135 36.5441 37.4077C36.7715 38.156 36.1848 39.8403 36.1985 40.2269C36.2109 40.6134 36.5329 40.6569 36.7454 41.3269C36.9568 41.9944 36.8921 43.1703 35.9947 43.3717C35.311 42.6868 34.6286 42.0069 34.3439 41.7222C34.0593 41.4376 34.7367 40.964 34.7765 40.7788C34.8125 40.5948 34.9878 38.4966 34.5416 37.6463C34.0903 36.7974 31.9971 33.9943 31.9971 33.9943C31.9971 33.9943 30.1325 36.6494 30.2096 38.0851C30.319 39.0559 30.534 42.2045 30.6559 42.4991Z" fill="#ff7010"/>
</svg>
