<svg viewBox="0 0 54 53" fill="none" xmlns="http://www.w3.org/2000/svg">
<path d="M40.7696 11.4421C37.5458 5.9576 33.3742 9.83015 32.56 11.0096C31.748 12.189 31.2416 15.4492 31.2416 15.4492C31.2416 15.4492 33.1447 15.9953 33.1767 16.3936C33.2109 16.7941 31.0154 17.2432 31.0154 17.2432C31.0154 17.2432 30.9823 17.5753 30.733 18.1578C30.4174 18.9389 27.4065 20.4394 27.273 21.3496C27.0755 22.6956 28.9886 22.3966 29.0008 23.0112C28.9875 23.34 28.9611 23.9887 28.9533 24.1619C28.8496 24.2038 28.3631 24.6628 28.4216 25.0688C28.49 25.5344 28.9511 25.6867 28.9511 25.6867C28.9511 25.6867 28.3366 26.3012 28.4922 26.6178C28.6477 26.9334 29.4498 26.8826 29.5999 27.0161C29.7499 27.1496 29.7698 27.8392 29.5326 28.0631C29.2932 28.286 28.5363 28.7946 28.9346 29.9255C29.3307 31.0542 29.7334 31.4558 34.0186 30.9218C35.5587 35.0657 30.7296 36.7052 28.9975 37.3043C28.2351 37.5691 27.433 38.9118 26.9056 40.3152C26.3783 38.9118 25.5784 37.568 24.8138 37.3043C23.086 36.7063 18.2547 35.0668 19.7938 30.9218C24.0823 31.4536 24.4817 31.0553 24.8789 29.9255C25.2772 28.7946 24.5192 28.2882 24.2809 28.0631C24.0437 27.8392 24.0658 27.1485 24.2136 27.0161C24.3614 26.8837 25.1657 26.9334 25.3213 26.6178C25.4769 26.3012 24.8623 25.6867 24.8623 25.6867C24.8623 25.6867 25.3257 25.5344 25.3919 25.0688C25.4504 24.6617 24.9616 24.2027 24.8601 24.1619C24.8524 23.9887 24.8259 23.34 24.8116 23.0112C24.8281 22.3955 26.739 22.6945 26.5404 21.3496C26.4069 20.4405 23.3972 18.9389 23.0816 18.1578C22.8323 17.5764 22.7981 17.2432 22.7981 17.2432C22.7981 17.2432 20.6047 16.7941 20.6389 16.3958C20.6709 15.9964 22.5741 15.4514 22.5741 15.4514C22.5741 15.4514 22.0754 12.1901 21.2612 11.0107C20.447 9.83015 16.2732 5.9576 13.0516 11.4432C8.69471 18.8551 8.99591 23.4988 10.5251 30.1252C10.8208 31.4006 11.6427 33.6844 12.1877 34.9113C13.0373 33.9349 15.6874 31.8761 18.0363 17.5157C17.5508 30.9891 12.5022 35.389 12.6555 35.6439C15.1743 39.8507 19.7188 43.4188 26.8108 43.8733C26.8339 43.8755 26.8505 43.8888 26.8769 43.8865C26.8902 43.8865 26.9001 43.8843 26.9123 43.8843C26.9244 43.8843 26.9354 43.8865 26.9465 43.8865C26.9707 43.8888 26.9873 43.8755 27.0127 43.8733C34.1046 43.4176 38.6491 39.8507 41.1679 35.6439C41.3212 35.3901 36.2715 30.9891 35.7871 17.5157C38.136 31.8761 40.7839 33.9349 41.6357 34.9113C42.1807 33.6833 43.0038 31.4006 43.2983 30.1252C44.8242 23.4977 45.1265 18.854 40.7696 11.4421Z" fill="#ff7010"/>
</svg>
