<svg  viewBox="0 0 54 53" fill="none" xmlns="http://www.w3.org/2000/svg">
<path d="M27.1295 22.9558C25.7338 26.2348 32.8498 26.5132 36.0594 28.1181C39.269 29.7229 40.734 33.0723 41.499 33.0723C45.4758 27.7691 39.269 20.5134 39.269 20.5134C39.269 20.5134 36.8981 19.8155 36.4061 17.5129C35.9185 15.2102 38.0803 11.7915 37.7313 13.5361C37.3857 15.2796 39.8953 16.1876 40.176 17.3731C40.4545 18.5585 40.1066 20.5134 40.1066 20.5134C40.1066 20.5134 46.8737 24.63 42.6889 34.3282C44.2937 40.8179 40.7384 40.8179 40.7384 40.8179C40.7384 40.8179 41.9228 43.1205 38.5745 43.1205C35.2251 43.1205 33.2735 43.1205 30.2719 43.1205C27.2692 43.1205 29.4321 40.6087 30.7573 40.6087C32.0826 40.6087 33.1624 40.6506 33.6874 40.6087C33.5124 40.6208 29.6644 40.3104 30.4833 37.7227C25.5709 38.1256 19.1769 36.1432 19.1769 36.1432C19.1769 36.1432 16.0697 43.5927 13.767 43.5223C11.4644 43.454 9.6053 43.6599 9.77701 42.4216C10.1556 39.945 13.5612 42.3181 13.8738 37.606C14.0829 34.8862 15.6173 32.8609 15.6173 32.8609C15.6173 32.8609 11.362 29.9991 12.7577 21.7681C12.2756 21.8078 10.9437 22.0466 10.5244 21.209C10.1061 20.3725 10.5244 19.3962 10.5244 19.3962C10.5244 19.3962 8.74676 16.9867 9.51394 15.5911C10.28 14.1943 13.4269 13.7815 14.8919 13.6417C15.4885 7.95444 18.0014 8.0513 21.9089 9.72656C28.3248 8.96157 29.9781 18.8733 27.1295 22.9558Z" fill="#ff7010"/>
</svg>
