<svg viewBox="0 0 53 53" fill="none" xmlns="http://www.w3.org/2000/svg">
<path d="M42.1847 31.4207L38.5715 20.1572H37.6559V19.541C39.4466 19.0996 39.4772 17.334 39.4772 17.334C39.4772 17.334 38.7987 18.1305 37.6559 18.4397V17.9524H36.9413V18.5588C36.9118 18.5598 36.8845 18.5675 36.8539 18.5686C35.2259 18.6079 34.4917 15.907 32.4431 15.907C30.5355 15.907 28.4049 17.0422 27.0271 17.1996V14.1261C28.0017 13.9742 28.7469 13.1417 28.7469 12.1256C28.7491 11.0046 27.8378 10.0945 26.7158 10.0945C25.5948 10.0945 24.6846 11.0046 24.6846 12.1256C24.6846 13.1963 25.5172 14.0649 26.5693 14.1436V17.1766C25.1916 16.9592 23.1474 15.907 21.3074 15.907C19.2588 15.907 18.5268 18.6079 16.8977 18.5686C16.7655 18.5642 16.6443 18.5435 16.5197 18.5271V17.9524H15.8051V18.3599C14.836 18.0081 14.2755 17.3351 14.2755 17.3351C14.2755 17.3351 14.3061 18.8985 15.8051 19.4481V20.1572H14.8906L11.2141 31.4218H9.11084C9.11084 31.4218 10.6197 34.3052 16.0237 34.3052C21.4276 34.3052 22.9365 31.4218 22.9365 31.4218H21.0474L17.4364 20.1583H16.5197V19.6164C16.6639 19.6317 16.8147 19.6404 16.9775 19.6404C19.6401 19.6404 20.0367 17.9524 21.5074 17.9524C22.8305 17.9524 24.3809 19.5956 26.2918 19.9278C26.3738 19.9507 26.7748 19.9234 26.6546 19.9529L26.5923 26.2648L25.3784 28.7231L25.4199 36.1287H22.0832V37.4387L19.4009 41.8495H34.6567L31.3789 37.3786V36.1265H28.4595V28.7887L27.2304 26.2058L27.2293 19.9376C27.3396 19.9365 27.3353 19.9605 27.462 19.9267C29.3729 19.5945 30.9233 17.9513 32.2464 17.9513C33.7182 17.9513 34.1137 19.6393 36.7763 19.6393C36.8375 19.6393 36.8878 19.6328 36.9424 19.6306V20.155H36.029L32.3524 31.4185H30.2481C30.2481 31.4185 31.757 34.3019 37.1609 34.3019C42.5649 34.3019 44.0737 31.4207 44.0737 31.4207H42.1847ZM15.8051 31.4207H11.9669L15.4085 20.874H15.8051V31.4207V31.4207ZM16.9152 20.8729L20.2979 31.4185H16.5197V20.8729H16.9152ZM36.9424 31.4207H33.103L36.5447 20.874H36.9413V31.4207H36.9424ZM37.657 31.4207V20.8729H38.0514L41.434 31.4185L37.657 31.4207Z" fill="#ff7010"/>
</svg>
