<svg viewBox="0 0 54 53" fill="none" xmlns="http://www.w3.org/2000/svg">
<path d="M25.8428 24.6666C25.8428 24.6666 26.0328 25.049 26.2094 25.0916C27.4907 25.3937 33.1995 26.6921 34.8414 25.6653C35.7184 25.0819 32.5053 22.3365 32.5053 22.3365C32.5053 22.3365 36.2982 24.088 36.9449 23.4473C39.2933 19.6666 33.241 13.4475 31.7026 11.9798C31.3165 11.5449 31.0315 11.8714 31.0315 11.8714L23.8501 16.8469L25.8428 24.6666ZM32.476 17.6058C33.1058 17.6058 33.6149 18.1161 33.6149 18.7446C33.6149 19.3743 33.1058 19.8847 32.476 19.8847C31.8476 19.8847 31.3372 19.3743 31.3372 18.7446C31.3384 18.1161 31.8488 17.6058 32.476 17.6058Z" fill="#ff7010"/>
<path d="M24.0013 24.3341C24.7881 24.3779 24.5615 23.5046 24.5615 23.5046L22.7528 16.3232L30.4324 11.2965C30.4324 11.2965 30.9439 10.9579 30.4579 10.6522C29.2351 9.60955 25.6541 6.64978 24.4483 6.74722C22.9879 6.86415 23.3387 10.7179 22.2875 10.4841C11.3084 11.0078 7.41195 29.9491 7.9223 30.5691C8.43264 31.1903 8.8492 31.6275 9.78951 30.9211C10.7481 33.0027 8.5313 37.72 7.79197 39.6494C7.59952 40.2328 8.08916 40.0793 8.42655 39.7906C10.122 38.0964 11.323 37.4947 12.0026 37.5605C12.6811 37.6275 14.2486 38.2218 15.1585 38.7298C15.5933 39.0501 16.0976 38.9612 15.6372 38.3047C8.54105 23.367 20.6663 23.9906 24.0013 24.3341Z" fill="#ff7010"/>
<path d="M27.91 27.7957C27.91 27.7957 27.7224 27.4144 27.5434 27.3694C26.2645 27.0673 20.5556 25.7701 18.9125 26.7945C18.0368 27.3779 21.2475 30.1221 21.2475 30.1221C21.2475 30.1221 17.4534 28.373 16.8103 29.0149C14.4595 32.7956 20.513 39.0148 22.0514 40.4825C22.4375 40.9161 22.7225 40.5909 22.7225 40.5909L29.9039 35.6141L27.91 27.7957ZM21.2767 34.8565C20.6482 34.8565 20.1379 34.3461 20.1379 33.7164C20.1379 33.0867 20.6482 32.5752 21.2767 32.5752C21.9064 32.5752 22.4155 33.0867 22.4155 33.7164C22.4155 34.3461 21.9064 34.8565 21.2767 34.8565Z" fill="#ff7010"/>
<path d="M45.3286 12.6716C43.6331 14.3659 42.4309 14.9676 41.7513 14.9018C41.0704 14.836 39.5053 14.2404 38.5966 13.7325C38.1606 13.4122 37.6575 13.5011 38.1155 14.1576C45.2092 29.0965 33.0839 28.4729 29.749 28.1282C28.9622 28.0855 29.1899 28.9601 29.1899 28.9601L30.9975 36.1415L23.3191 41.1682C23.3191 41.1682 22.8076 41.5068 23.2935 41.8125C24.5164 42.8527 28.0986 45.8149 29.3044 45.7187C30.7612 45.5981 30.4116 41.7443 31.4627 41.9818C42.4419 41.4556 46.3383 22.518 45.8267 21.8956C45.3152 21.2756 44.8986 20.8384 43.9595 21.5448C43.001 19.4632 45.2177 14.7447 45.9607 12.8165C46.1532 12.2307 45.6647 12.3866 45.3286 12.6716Z" fill="#ff7010"/>
</svg>
