<svg viewBox="0 0 53 53" fill="none" xmlns="http://www.w3.org/2000/svg">
<path d="M40.7729 36.5478L40.4922 15.8615C40.7959 15.7212 41.0351 15.5705 41.1812 15.4049C42.3166 14.1108 42.8825 8.83538 39.649 7.98299C36.4154 7.1306 36.6501 10.9681 36.6547 11.3948C38.4112 10.1375 38.7276 11.5294 38.3905 12.674C38.0546 13.8174 31.1056 11.6192 28.2159 14.2672C25.9107 16.3815 24.5257 21.2727 24.0656 23.158L16.1744 15.6821L19.2216 14.5559L9.10796 11.0256L12.9385 20.9609L14.1268 17.128L21.7995 24.4372C19.5563 25.0641 16.087 26.2788 14.3741 28.1447C11.7261 31.0343 13.9255 37.9834 12.7809 38.3204C11.6364 38.6575 10.2445 38.3423 11.5018 36.5823C11.075 36.5742 7.23753 36.343 8.08992 39.5766C8.82038 42.3442 12.7867 42.327 14.7261 41.5517H37.9419L41.4262 44.546L42.0739 41.7346L44.7771 41.1295L40.7729 36.5478ZM32.0511 18.0955C33.0623 17.3846 36.6524 16.9774 39.0646 16.3412L39.3281 36.1268L37.4162 35.8024L26.7159 25.6669C27.7696 23.9333 30.8697 18.9225 32.0511 18.0955ZM16.095 40.1115C16.9554 37.8936 17.3707 33.1601 18.2047 31.9729C18.9018 30.9802 22.5897 28.6094 24.7673 27.2601L35.8391 37.8062L36.1543 40.016L36.2682 40.1115H16.095V40.1115Z" fill="#ff7010"/>
</svg>
