<svg viewBox="0 0 53 53" fill="none" xmlns="http://www.w3.org/2000/svg">
<path d="M16.8225 31.5509C17.0603 31.4953 17.3005 31.4551 17.5477 31.4291C18.0351 31.3652 18.5343 31.3675 19.0336 31.3829L19.6665 31.403L19.7197 30.7559C19.7327 30.5998 19.7871 30.3632 19.8723 30.1419C19.9551 29.9172 20.0628 29.6877 20.187 29.4688C20.4354 29.0275 20.7442 28.6111 21.0979 28.2515C21.7853 27.5121 22.682 27.0058 23.6284 27.0034H24.033L24.1489 26.671C24.3027 26.2297 24.6363 25.8464 25.0918 25.5613C25.5437 25.2727 26.0855 25.0668 26.6486 24.926C27.7819 24.6338 28.9945 24.5427 30.2118 24.5238C29.0241 24.2328 27.7831 24.1311 26.5279 24.2565C25.901 24.3322 25.2645 24.4753 24.6505 24.7699C24.1513 25.0159 23.6804 25.4134 23.3516 25.928C22.8003 25.9351 22.2537 26.0653 21.7604 26.2853C21.1701 26.5515 20.6507 26.9277 20.2024 27.3583C19.7588 27.796 19.3814 28.287 19.0667 28.8229C18.9094 29.0926 18.7698 29.3718 18.6503 29.6735C18.6006 29.8036 18.5568 29.9385 18.5166 30.0757C17.5714 30.0982 16.6155 30.233 15.7081 30.5619C14.6257 30.9771 13.6248 31.6313 12.876 32.5009C12.1059 33.3479 11.5794 34.3606 11.2174 35.3957C10.8732 36.4415 10.6697 37.5239 10.691 38.6005C10.9524 37.5606 11.3203 36.5645 11.8042 35.6477C12.2798 34.7273 12.8784 33.8862 13.6059 33.2083C14.3335 32.5352 15.1829 32.0241 16.1127 31.7343C16.3529 31.6728 16.58 31.5935 16.8225 31.5509Z" fill="#ff7010"/>
<path d="M12.8273 31.0103C13.53 30.5431 14.2859 30.187 15.0939 29.9894C15.9019 29.7942 16.7395 29.709 17.5865 29.7575L18.1875 29.7907L18.2703 29.127C18.2845 29.0181 18.333 28.8218 18.4075 28.6372C18.4844 28.4479 18.585 28.2575 18.6962 28.0694C18.9221 27.6944 19.2013 27.3383 19.5148 27.0331C19.8224 26.7196 20.1655 26.4486 20.5334 26.257C20.6268 26.2132 20.7179 26.1553 20.8149 26.1281C20.9108 26.1008 21.0042 26.0488 21.1024 26.0322C21.2976 25.9802 21.4928 25.9589 21.6927 25.9447L22.1222 25.9056L22.2109 25.6111C22.4037 24.9628 22.9822 24.4778 23.7429 24.2281C24.4988 23.9631 25.3577 23.8957 26.2237 23.8969C25.4062 23.5881 24.5142 23.4556 23.5915 23.5656C23.1313 23.6319 22.6604 23.7727 22.2263 24.0412C21.9033 24.2494 21.6182 24.5393 21.4053 24.8729C21.2195 24.8764 21.035 24.8894 20.854 24.9285C20.7061 24.9474 20.5724 25.003 20.4317 25.0397C20.2885 25.0764 20.1607 25.1402 20.0282 25.1958C19.5054 25.4301 19.0428 25.7554 18.6358 26.1245C18.2348 26.5019 17.8894 26.9266 17.5936 27.3915C17.4481 27.6246 17.3144 27.8694 17.1985 28.1356C17.1594 28.2397 17.118 28.3415 17.0825 28.4491C16.7844 28.4562 16.4863 28.4704 16.1882 28.5071C15.7043 28.558 15.2217 28.6585 14.752 28.8028C13.8198 29.1045 12.9325 29.5706 12.2003 30.2106C11.4632 30.8435 10.8765 31.6172 10.434 32.4489C10.007 33.2853 9.69109 34.1737 9.58936 35.0858C10.3418 33.4237 11.4431 31.9757 12.8273 31.0103Z" fill="#ff7010"/>
<path d="M9.47705 30.756C9.13398 31.5805 8.92222 32.4536 8.93286 33.3231C9.47587 31.6929 10.4128 30.2449 11.694 29.3411C12.3388 28.8987 13.0497 28.5721 13.8104 28.4042C14.189 28.3202 14.577 28.2515 14.9698 28.2232C15.3625 28.1888 15.7624 28.1936 16.1622 28.2078L16.7561 28.2314L16.8472 27.5784C16.8555 27.5252 16.9111 27.2898 16.9904 27.117C17.0649 26.9337 17.1666 26.7491 17.2731 26.5717C17.492 26.2191 17.7652 25.9021 18.0799 25.643C18.2372 25.5152 18.3946 25.3816 18.5732 25.2869C18.7436 25.1745 18.9329 25.1036 19.1198 25.0231C19.3138 24.9628 19.5078 24.9001 19.7148 24.8752C19.9171 24.8255 20.1312 24.8397 20.3395 24.8125L20.7713 24.7569L20.8493 24.5002C20.9901 24.0365 21.5875 23.6733 22.2701 23.4923C22.9527 23.2947 23.7028 23.2214 24.4634 23.1741C23.7394 22.9114 22.9669 22.7931 22.1625 22.8192C21.7614 22.844 21.3462 22.9114 20.931 23.0889C20.6269 23.219 20.3217 23.4391 20.0887 23.7289C19.9159 23.7218 19.7444 23.7182 19.5705 23.7478C19.296 23.7691 19.0275 23.8295 18.7566 23.9004C18.494 23.9868 18.2278 24.0755 17.9853 24.2139C17.8587 24.2743 17.7357 24.3393 17.6221 24.4198C17.5061 24.4967 17.3831 24.5653 17.2802 24.6587C17.0814 24.8173 16.8993 24.9924 16.7265 25.1769C15.0301 24.6233 8.1296 22.0774 11.377 18.1711C15.062 13.7336 19.3221 14.0199 19.3221 14.0199C19.3221 14.0199 22.1814 16.2736 23.1704 15.6418C21.1368 13.9904 22.6203 13.7975 22.6203 13.7975C22.6203 13.7975 24.325 13.6875 25.9481 15.475C26.1954 13.8519 22.6227 12.0171 21.9626 11.9284C21.3012 11.8396 20.4223 11.4883 19.1848 12.5045C17.0128 11.8739 11.3225 13.5219 8.46321 17.4258C5.47492 22.8807 10.6447 26.464 12.5659 27.5583C12.017 27.8138 11.4988 28.1321 11.0552 28.5402C10.3608 29.1636 9.83314 29.9385 9.47705 30.756Z" fill="#ff7010"/>
<path d="M42.1081 24.7439C39.9456 23.5538 38.6821 24.305 37.3997 24.9119C37.0306 25.0196 33.4378 24.2494 31.2209 24.6339C29.0773 25.0042 24.5428 26.9798 24.2458 27.1099C24.2423 27.1123 24.2364 27.1147 24.2328 27.117C24.2293 27.117 24.2163 27.1241 24.2163 27.1241H24.2174C23.5538 27.4128 20.2981 29.3789 20.3715 31.3392C20.1964 31.4906 19.9657 31.674 19.7587 31.842C18.1356 33.1468 15.417 35.3248 15.9423 37.9581C16.6107 41.3084 20.4945 42.9907 20.6589 43.0593C20.6589 43.0593 20.5856 46.16 25.5282 47.2424C30.8802 48.4148 34.1796 43.6153 34.1796 43.6153C34.1796 43.6153 27.324 46.7302 26.335 44.5298C25.8204 43.5029 29.9278 42.6594 29.7066 41.9271C27.9073 41.3108 25.0881 42.0384 25.1615 42.5506C24.7214 41.0837 21.3865 41.4137 21.3865 41.4137C21.3865 41.4137 18.1498 40.019 17.6659 37.6115C17.3489 36.0263 19.5469 34.2648 20.8589 33.2119C21.5143 32.6866 21.8976 32.3672 22.0999 32.0313C22.9386 32.2276 23.7478 32.3507 23.8933 32.3791C23.8945 32.3731 23.8957 32.3661 23.898 32.3601C24.0767 32.8783 24.5475 33.2841 25.4951 33.4296C27.6115 33.6212 27.996 32.4252 28.1876 32.631C30.0426 35.1473 33.8803 33.0723 33.8803 33.0723C33.8803 33.0723 29.2216 32.5612 29.8545 30.556C30.4839 28.5497 33.2781 29.2642 33.8803 29.7173C34.3192 27.8895 29.6605 27.9049 29.5777 28.4396C28.4846 27.1833 27.4471 27.0993 26.529 27.5879C26.3835 27.5429 26.2144 27.4944 26.0286 27.4447C26.7621 27.1336 29.1494 26.1683 31.3794 25.7873C34.0554 25.3271 37.8126 26.5019 37.796 27.3051C37.7771 28.1096 40.1254 29.9645 41.8443 29.8391C40.4886 28.4089 40.2898 27.3808 41.0032 26.9763C41.7177 26.5728 44.2825 27.9487 45.3661 29.8391C45.6808 28.4302 44.2707 25.9376 42.1081 24.7439Z" fill="#ff7010"/>
</svg>
