<svg viewBox="0 0 54 53" fill="none" xmlns="http://www.w3.org/2000/svg">
<g clip-path="url(#clip0)">
<path d="M21.3795 18.9278C20.3816 18.0199 15.405 13.2335 11.5361 12.3896C10.3449 9.50718 8.93889 9.43672 8.93889 9.43672C8.93889 9.43672 11.1888 4.09473 2.33187 4.37494C7.85247 7.05249 6.7513 7.71942 5.98605 9.57764C2.8333 10.4084 4.25236 14.5575 3.59363 15.3424C2.93817 16.1273 0.50314 16.9597 0.994734 18.4345C1.48797 19.9093 6.61857 20.473 7.46247 20.8253C10.6955 22.0887 8.72587 27.3635 9.78116 29.3282C10.8364 31.2963 11.2576 35.8664 11.2576 35.8664C11.2576 35.8664 10.1302 39.3846 10.0106 40.4448C9.7959 41.8442 10.0237 42.8061 9.8467 43.7909C9.16339 44.6086 8.5915 45.8687 8.5915 45.8687L11.818 45.9195C11.818 45.9195 12.1261 44.4742 11.818 43.8139C11.8885 43.0372 13.5402 36.748 14.856 36.8857C15.5066 36.6743 16.5275 43.9515 15.6131 43.9515C14.5152 44.3038 14.4185 46.126 14.4185 46.126L17.3206 46.1702C17.3206 46.1702 17.2272 44.72 17.8072 44.6086C18.23 43.7631 18.0301 41.1167 18.0022 40.7857C17.9744 40.4546 17.6499 36.4973 17.6499 36.4973C17.6499 36.4973 21.3058 33.8968 22.4299 34.2491C27.2819 35.4437 35.8225 32.635 36.632 32.073C36.1584 32.2368 38.387 36.8529 38.3165 37.6263C38.2461 38.3998 36.1552 41.9442 35.7717 42.8422C34.6001 43.4911 35.3621 44.7971 35.3621 44.7971L37.9806 44.8692C37.9806 44.8692 38.0134 43.396 38.4575 43.3895C38.9015 43.3829 39.3079 40.5022 39.8618 39.5976C40.4189 38.6865 42.5344 35.4961 41.548 35.1225C40.5598 34.7489 46.8916 41.8475 47.3832 42.6914C47.665 43.1715 47.488 44.8708 47.2832 46.2374C46.5655 46.6668 46.962 48.1038 46.962 48.1038H49.0005C49.0005 48.1038 49.1267 46.8028 49.5331 46.6405C49.6363 46.3505 49.8411 45.7852 49.8411 45.7852C49.8411 45.7852 49.6707 39.7025 46.3246 36.1532C47.7273 31.7256 45.5479 24.1337 45.5479 24.1337C45.5479 24.1337 48.291 25.4676 47.9387 26.5933C47.5864 29.6904 50.0476 28.8891 49.8362 32.0107C49.343 34.5408 52.1566 35.4551 53.3528 36.2237C53.3528 35.0996 52.8595 32.9906 51.1979 32.2205C51.4552 28.6351 49.3463 27.7224 49.4167 26.5229C49.6298 20.6172 46.1362 21.9117 44.2157 21.3906C42.4689 20.1961 27.4228 21.0383 27.4228 21.0383C27.4228 21.0383 23.0853 19.7684 21.3795 18.9278Z" fill="#ff7010"/>
</g>
<defs>
<clipPath id="clip0">
<rect width="52.4269" height="52.4269" fill="white" transform="translate(0.929199 0.0194397)"/>
</clipPath>
</defs>
</svg>
