<svg viewBox="0 0 53 53" fill="none" xmlns="http://www.w3.org/2000/svg">
<path d="M43.4392 21.4512C43.4392 21.4512 44.0538 21.2805 44.0126 21.0028C43.7471 21.1679 43.1146 20.6302 43.1146 20.6302C43.1146 20.6302 42.8056 18.85 42.7822 18.1896C42.7599 17.5281 42.6963 16.8934 42.6963 16.8934C42.6963 16.8934 43.0711 17.3318 43.553 16.9068C42.6071 16.4439 42.6662 15.8193 42.7688 15.4177C42.8714 15.0139 43.621 12.1639 42.0605 10.7317C41.0343 9.84041 40.4654 10.6402 40.4654 10.6402C40.4654 10.6402 40.3137 10.3758 40.1241 10.3903C39.9344 10.4015 39.7972 10.6056 39.7972 10.6056C39.7972 10.6056 39.689 10.2765 39.5184 10.3234C39.3499 10.368 39.3042 10.5309 39.3042 10.5309C39.3042 10.5309 39.1168 9.53812 37.0454 8.66694C34.9696 7.79577 32.2434 9.18117 31.6734 9.67755C31.1 10.1717 30.8825 10.3267 31.0677 10.9146C31.1357 11.1209 31.2417 11.1957 31.3555 11.2102C30.9227 12.1672 31.2417 13.6999 31.3387 13.8739C31.4391 14.0457 31.3532 14.445 31.2183 14.6469C30.9204 15.0897 30.5914 15.2939 30.4843 15.5906C30.3337 16.0067 31.1313 16.0792 31.1313 16.0792V16.2376C31.1313 16.2376 30.8758 16.4841 30.9294 16.677C31.003 16.9358 31.515 16.8444 31.515 16.8444C31.515 16.8444 31.0231 17.0262 31.0454 17.266C31.0688 17.5047 31.274 17.6096 31.274 17.6096C31.274 17.6096 30.7989 18.5465 31.5005 18.7551C32.2043 18.9626 33.9021 17.8226 34.0895 18.8232C34.2222 19.3408 34.3259 20.1807 34.2523 20.705C34.1954 20.7406 34.1363 20.773 34.0716 20.783C29.1614 19.594 24.3604 26.3559 21.9399 26.531C19.7313 26.6916 8.93701 28.4384 8.93701 28.4384V44.0805C8.93701 44.0805 33.3432 44.0805 34.0928 44.0805C34.8435 44.0805 34.2713 40.4329 34.3315 38.5032C34.3906 36.5746 38.3427 30.8768 38.9004 30.8166C39.4581 30.7597 38.9439 44.0805 38.9439 44.0805H41.5128C41.5128 44.0805 41.5998 28.8076 41.5407 24.4027C42.4777 24.7318 42.9596 24.1763 42.9261 23.9275C42.2234 24.367 42.075 23.5259 42.075 23.5259C42.075 23.5259 43.2451 23.8907 43.2819 23.169C42.3293 23.4791 42.104 21.6988 42.104 21.6988C42.104 21.6988 43.9579 23.6252 44.3037 21.6062C43.7013 22.2833 43.4392 21.4512 43.4392 21.4512ZM28.1307 29.5751C29.1591 31.5729 27.7894 34.4552 27.7035 35.4814C27.6142 36.5076 24.5478 36.801 22.2288 36.6225C20.4084 36.4853 15.9733 32.2644 13.7513 30.5533C15.5528 30.0648 21.6164 29.2851 23.0308 29.2304C24.5623 29.169 27.9556 25.4178 28.9528 25.7267C29.9522 26.0402 26.9862 27.285 28.1307 29.5751ZM37.8184 20.7908C37.8184 19.9163 38.0951 19.0719 39.167 19.0429C39.5875 18.9515 39.7972 20.3993 40.0783 21.7847C39.1001 21.2248 37.9679 20.8399 37.8184 20.7908Z" fill="#ff7010"/>
</svg>
